<?xml version="1.0" standalone="no"?>
<!DOCTYPE svg PUBLIC "-//W3C//DTD SVG 20010904//EN"
 "http://www.w3.org/TR/2001/REC-SVG-20010904/DTD/svg10.dtd">
<svg version="1.0" xmlns="http://www.w3.org/2000/svg"
 width="50.000000pt" height="50.000000pt" viewBox="0 0 50.000000 50.000000"
 preserveAspectRatio="xMidYMid meet">
<metadata>
Created by potrace 1.13, written by Peter Selinger 2001-2015
</metadata>
<g transform="translate(0.000000,50.000000) scale(0.100000,-0.100000)"
fill="#000000" stroke="none">
<path d="M200 461 c0 -5 15 -12 33 -15 17 -4 43 -15 57 -26 30 -23 23 -26 -16
-5 -41 21 -112 19 -150 -4 -30 -18 -84 -80 -84 -95 0 -4 17 6 38 23 20 16 51
33 67 36 28 6 28 5 -9 -17 -85 -50 -106 -127 -62 -224 26 -56 46 -72 26 -20
-5 15 -10 37 -10 49 1 15 5 10 14 -16 24 -66 67 -98 154 -112 50 -8 59 9 10
19 -18 4 -44 15 -58 26 -30 23 -23 26 16 5 41 -21 112 -19 150 4 30 18 84 80
84 95 0 4 -17 -6 -37 -23 -21 -16 -51 -33 -68 -36 -28 -6 -28 -5 9 17 85 50
106 127 62 224 -26 56 -46 72 -26 20 5 -15 10 -37 10 -49 -1 -15 -6 -9 -15 18
-8 22 -28 52 -46 67 -41 34 -149 63 -149 39z"/>
</g>
</svg>
