<?xml version="1.0" encoding="UTF-8" ?>
<!DOCTYPE svg PUBLIC "-//W3C//DTD SVG 1.1//EN" "http://www.w3.org/Graphics/SVG/1.1/DTD/svg11.dtd">
<svg width="50pt" height="50pt" viewBox="0 0 50 50" version="1.1" xmlns="http://www.w3.org/2000/svg">
<path fill="#fefefc" d=" M 0.00 0.00 L 50.00 0.00 L 50.00 50.00 L 0.00 50.00 L 0.00 0.00 Z" />
<path fill="#0101fb" d=" M 17.95 3.90 C 25.41 2.13 34.24 4.84 38.44 11.51 C 40.30 14.35 40.64 17.80 40.88 21.10 C 42.14 16.17 40.17 11.29 38.04 6.92 C 43.16 11.62 46.58 18.92 44.54 25.89 C 43.39 32.26 37.45 36.19 31.64 37.88 C 38.04 38.35 43.35 34.00 46.86 29.08 C 45.97 33.23 43.03 36.36 40.47 39.56 C 36.53 41.80 32.15 44.18 27.46 43.28 C 23.84 42.89 20.95 40.60 17.97 38.76 C 21.11 43.46 26.71 45.19 32.01 45.99 C 24.56 48.05 15.71 45.00 11.50 38.42 C 9.61 35.57 9.67 32.08 9.45 28.81 C 8.46 33.77 9.50 38.62 11.84 43.02 C 6.24 37.90 3.35 29.41 6.06 22.11 C 8.07 16.88 13.11 13.47 18.43 12.27 C 11.97 11.59 6.66 16.06 3.08 20.93 C 5.33 12.80 13.20 5.93 21.90 6.61 C 25.75 6.76 28.72 9.32 31.93 11.08 C 28.75 6.51 23.13 4.89 17.95 3.90 Z" />
</svg>
