<?xml version="1.0" encoding="UTF-8" ?>
<!DOCTYPE svg PUBLIC "-//W3C//DTD SVG 1.1//EN" "http://www.w3.org/Graphics/SVG/1.1/DTD/svg11.dtd">
<svg width="50pt" height="50pt" viewBox="0 0 50 50" version="1.1" xmlns="http://www.w3.org/2000/svg">
<path fill="#fefefd" d=" M 0.00 0.00 L 50.00 0.00 L 50.00 50.00 L 0.00 50.00 L 0.00 0.00 Z" />
<path fill="#a148a2" d=" M 17.76 3.70 C 27.16 0.99 38.33 6.66 40.88 16.34 C 40.81 12.91 38.97 9.92 37.83 6.79 C 45.88 12.43 48.02 25.73 40.90 32.94 C 38.70 35.39 35.56 36.55 32.74 38.08 C 38.76 37.48 43.19 33.25 47.11 29.05 C 44.81 39.71 31.39 47.68 21.54 41.32 C 20.53 39.38 18.48 40.56 17.31 41.64 C 17.98 42.28 18.63 42.93 19.28 43.59 C 19.84 43.14 20.26 41.91 21.16 42.42 C 24.78 44.10 28.60 45.12 32.48 45.98 C 22.97 49.51 9.95 42.79 9.29 32.05 C 8.64 36.08 10.79 39.65 12.21 43.24 C 5.95 38.78 3.42 29.93 5.59 22.68 C 7.29 17.33 12.18 14.08 17.10 12.04 C 11.13 12.64 6.65 16.79 2.84 21.05 C 4.85 13.29 11.90 6.76 20.06 6.32 C 22.79 6.31 25.89 6.77 27.50 9.25 C 28.68 9.54 29.89 9.74 31.07 10.05 C 29.51 8.84 28.08 7.43 26.29 6.57 C 23.66 4.98 20.35 5.35 17.76 3.70 Z" />
</svg>
